<svg width="1200" height="1073" viewBox="0 0 1200 1073" fill="none" xmlns="http://www.w3.org/2000/svg">
<path d="M418.87 972.531C425.69 975.609 428.98 979.241 435.928 981.475C494.969 1009.69 559.17 1026.71 624.175 1030.93C729.108 1036.56 836.141 1012.3 924.599 955.841C957.554 935.989 987.775 912.062 1014.96 885.06L1015.29 884.796C1017.73 882.786 1020.93 879.104 1024.15 875.391L1025.02 874.379C1027.8 871.179 1030.53 868.067 1032.74 866.101C1071.38 823.591 1103.1 774.736 1125.87 722.12C1145.74 673.803 1158.27 622.707 1163.43 570.723C1168.57 518.619 1163.66 466.034 1153.21 414.954C1143.06 363.555 1122.03 314.794 1096.05 269.469C1069.79 224.171 1036.52 182.633 997.063 147.796C957.873 112.823 913.68 83.0159 865.448 61.2363C817.152 39.7387 765.622 25.6263 712.873 18.7634C607.078 5.24646 497.18 26.9164 401.849 78.0385C493.286 19.8289 604.941 -6.65138 714.546 1.41805C769.312 6.33805 823.425 19.2074 874.73 39.8849C926.005 60.8602 973.098 91.2838 1015.42 126.988C1025.59 136.4 1036.69 144.897 1046.06 155.129L1074.49 185.605C1076.43 188.091 1078.38 190.576 1080.32 193.064L1082.66 196.051C1097.04 214.48 1111.2 233.134 1122.8 253.513C1151.15 301.188 1174.28 352.833 1186.04 407.47C1198.02 461.861 1203.11 518.071 1198.06 573.737C1192.84 629.293 1179.74 684.118 1158.61 735.945C1129.02 803.284 1086.06 864.926 1032.74 915.515C1026.91 921.041 1021.05 926.525 1014.96 931.779C992.265 951.407 968.018 969.201 942.088 984.473C894.357 1013.19 842.225 1035.14 787.715 1046.82C733.451 1058.74 677.383 1064.06 622.074 1058.48C557.194 1052.83 493.919 1034.36 435.928 1005.67C429.959 1002.72 424.006 999.756 418.152 996.575C383.864 977.96 351.589 955.768 322.434 930.04C240.322 857.175 181.296 759.02 158.883 652.979C189.042 756.853 250.299 850.495 333.64 916.831C359.873 938.235 388.359 956.515 418.152 972.215L418.87 972.531Z" fill="#3BA86C"/>
<path d="M171.828 832.762C183.309 845.22 197.91 853.86 211.37 863.497C225.394 872.344 240.879 878.664 255.426 885.987L235.307 871.795C228.81 866.867 221.472 863.212 215.703 857.396C203.988 846.149 190.823 836.727 181.437 823.601C176.643 817.223 170.553 811.924 166.631 804.989L154.241 784.861C147.743 770.582 140.488 756.625 137.126 741.284C128.954 711.215 127.024 679.563 130.674 648.411C134.048 621.319 140.677 593.632 150.619 568.598C177.647 576.301 204.197 592.178 220.279 614.896C229.904 627.515 235.562 642.777 238.957 658.609L240.99 670.711C241.307 674.825 241.307 679.013 241.484 683.173L242.439 710.322C244.212 748.001 256.681 784.093 274.12 816.203C292.358 847.941 315.415 876.71 343.529 899.114C319.995 872.121 300.757 841.919 286.766 809.867C280.095 793.75 273.89 777.434 270.606 760.475C268.273 752.172 267.66 743.544 266.084 735.138C265.59 726.588 264.483 718.108 264.742 709.599C264.973 700.959 265.372 693.098 265.347 683.053C265.331 678.262 265.487 673.479 265.281 668.654L263.45 654.197C260.166 635.123 253.866 615.664 242.179 599.328C230.711 582.976 215.608 569.539 198.947 559.436C181.984 549.312 164.693 542.179 144.299 538.424L133.929 536.5L129.69 546.144C122.407 562.774 117.279 578.552 113.193 595.318C108.872 611.844 106.193 628.803 104.802 645.895C102.107 680.005 105.321 715.122 116.814 747.645C127.789 780.202 146.776 810.168 171.828 832.762Z" fill="#82BF22"/>
<path d="M182.979 1020.3L161.768 1031.85L152.047 1037.05L141.938 1040.92C128.359 1045.43 114.268 1047.94 100.375 1046.26C76.1958 1044.25 52.3565 1031.38 34.3817 1014.54C48.8441 995.901 66.7824 978.535 85.6876 963.853C107.734 946.988 132.708 934.192 159.265 926.801C185.822 919.583 214.334 917.578 242.109 923.286C256.378 924.462 269.675 930.019 283.568 933.988C297.042 938.966 309.884 945.792 323.495 951.448C311.348 943.51 299.467 934.443 286.312 927.757C272.806 921.881 259.676 914.324 244.926 911.049C216.242 901.899 184.609 900.833 154.613 907.095C124.439 912.935 96 926.373 71.0735 943.886C45.9642 961.68 24.5762 982.708 5.90102 1008.25L0 1016.28L6.66412 1023.95C18.9209 1038.02 32.2544 1048.05 47.804 1056.53C63.1863 1064.8 80.4451 1070.32 98.2893 1071.72C116.212 1073.29 134.061 1069.29 150.202 1063.12L162.181 1057.93C165.929 1055.91 169.541 1053.61 173.22 1051.46C181.003 1046.88 186.731 1043.04 193.223 1038.94C218.986 1023.32 248.919 1014.45 279.574 1010.31C310.376 1006.06 342.175 1007.45 373.536 1013.06C343.67 1001.41 311.207 997.029 278.602 996.909C246.066 997.943 212.698 1004.64 182.979 1020.3Z" fill="#3BA86C"/>
<path d="M355.9 496.24H322.16C322.16 485.413 327.06 480 336.86 480H408.4C408.4 490.827 403.454 496.24 393.56 496.24H374.66V565.4C374.66 569.88 373.074 573.333 369.9 575.76C366.727 578.093 362.06 579.26 355.9 579.26V496.24ZM427.426 492.6C427.426 488.12 429.013 484.713 432.186 482.38C435.359 479.953 440.026 478.74 446.186 478.74V520.46H488.046V492.6C488.046 488.027 489.633 484.573 492.806 482.24C496.073 479.907 500.739 478.74 506.806 478.74V565.4C506.806 569.88 505.173 573.333 501.906 575.76C498.733 578.093 494.113 579.26 488.046 579.26V536.7H446.186V565.4C446.186 569.88 444.553 573.333 441.286 575.76C438.113 578.093 433.493 579.26 427.426 579.26V492.6ZM530.266 488.54C530.266 486.207 531.153 484.2 532.926 482.52C534.793 480.84 537.033 480 539.646 480H602.086C602.086 485.6 601.106 489.707 599.146 492.32C597.279 494.84 594.199 496.1 589.906 496.1H549.026V520.46H586.266C586.266 526.06 585.286 530.167 583.326 532.78C581.459 535.3 578.379 536.56 574.086 536.56H549.026V561.9H592.846C597.046 561.9 600.079 563.207 601.946 565.82C603.906 568.34 604.886 572.4 604.886 578H539.646C537.033 578 534.793 577.207 532.926 575.62C531.153 573.94 530.266 571.887 530.266 569.46V488.54ZM668.543 493.58C668.543 489.007 670.083 485.413 673.163 482.8C676.243 480.093 680.397 478.74 685.623 478.74L732.943 552.66L734.343 551.54L728.603 542.02V478.74C734.67 478.74 739.243 479.907 742.323 482.24C745.497 484.573 747.083 488.027 747.083 492.6V566.52C747.083 569.973 745.59 572.96 742.603 575.48C739.71 578 736.35 579.26 732.523 579.26L682.683 501.28L681.283 502.54L687.023 512.06V565.4C687.023 569.973 685.437 573.427 682.263 575.76C679.183 578.093 674.61 579.26 668.543 579.26V493.58ZM770.426 488.54C770.426 486.207 771.313 484.2 773.086 482.52C774.953 480.84 777.193 480 779.806 480H842.246C842.246 485.6 841.266 489.707 839.306 492.32C837.439 494.84 834.359 496.1 830.066 496.1H789.186V520.46H826.426C826.426 526.06 825.446 530.167 823.486 532.78C821.619 535.3 818.539 536.56 814.246 536.56H789.186V561.9H833.006C837.206 561.9 840.239 563.207 842.106 565.82C844.066 568.34 845.046 572.4 845.046 578H779.806C777.193 578 774.953 577.207 773.086 575.62C771.313 573.94 770.426 571.887 770.426 569.46V488.54ZM900.555 579.26C892.155 579.26 884.828 578.233 878.575 576.18C872.322 574.127 867.515 571.233 864.155 567.5C860.888 563.673 859.255 559.24 859.255 554.2C859.255 546.547 864.435 542.72 874.795 542.72C875.168 549.813 877.548 555.18 881.935 558.82C886.415 562.46 892.668 564.28 900.695 564.28C907.322 564.28 912.455 563.16 916.095 560.92C919.735 558.587 921.555 555.367 921.555 551.26C921.555 548.553 920.855 546.36 919.455 544.68C918.055 542.907 915.675 541.367 912.315 540.06C908.955 538.66 904.055 537.26 897.615 535.86C888.468 533.713 881.235 531.333 875.915 528.72C870.688 526.107 866.908 522.98 864.575 519.34C862.242 515.607 861.075 510.987 861.075 505.48C861.075 500.16 862.615 495.493 865.695 491.48C868.868 487.467 873.302 484.34 878.995 482.1C884.782 479.86 891.408 478.74 898.875 478.74C906.062 478.74 912.455 479.72 918.055 481.68C923.748 483.547 928.182 486.207 931.355 489.66C934.622 493.113 936.255 497.08 936.255 501.56C936.255 508.467 931.262 512.06 921.275 512.34C920.715 505.9 918.662 501.187 915.115 498.2C911.568 495.213 906.155 493.72 898.875 493.72C892.622 493.72 887.815 494.747 884.455 496.8C881.095 498.853 879.415 501.747 879.415 505.48C879.415 508.093 880.068 510.287 881.375 512.06C882.682 513.74 884.875 515.233 887.955 516.54C891.035 517.753 895.422 519.013 901.115 520.32C910.728 522.467 918.335 524.893 923.935 527.6C929.535 530.213 933.595 533.433 936.115 537.26C938.635 540.993 939.895 545.613 939.895 551.12C939.895 556.813 938.262 561.807 934.995 566.1C931.822 570.3 927.248 573.567 921.275 575.9C915.395 578.14 908.488 579.26 900.555 579.26ZM983.494 496.24H949.754C949.754 485.413 954.654 480 964.454 480H1035.99C1035.99 490.827 1031.05 496.24 1021.15 496.24H1002.25V565.4C1002.25 569.88 1000.67 573.333 997.494 575.76C994.321 578.093 989.654 579.26 983.494 579.26V496.24Z" fill="black"/>
<path d="M412.596 624.234C411.106 624.234 409.806 624.035 408.696 623.636C407.604 623.22 406.772 622.665 406.2 621.972C405.628 621.279 405.342 620.507 405.342 619.658C405.342 619.017 405.533 618.514 405.914 618.15C406.296 617.769 406.894 617.578 407.708 617.578C407.726 618.999 408.168 620.083 409.034 620.828C409.901 621.573 411.114 621.946 412.674 621.946C414.096 621.946 415.188 621.703 415.95 621.218C416.73 620.733 417.12 620.031 417.12 619.112C417.12 618.54 416.973 618.072 416.678 617.708C416.401 617.344 415.907 617.023 415.196 616.746C414.503 616.451 413.515 616.165 412.232 615.888C410.603 615.524 409.312 615.108 408.358 614.64C407.405 614.172 406.712 613.609 406.278 612.95C405.845 612.274 405.628 611.442 405.628 610.454C405.628 609.483 405.906 608.634 406.46 607.906C407.032 607.161 407.83 606.589 408.852 606.19C409.875 605.774 411.062 605.566 412.414 605.566C413.697 605.566 414.841 605.748 415.846 606.112C416.869 606.459 417.666 606.953 418.238 607.594C418.828 608.235 419.122 608.972 419.122 609.804C419.122 610.324 418.94 610.74 418.576 611.052C418.212 611.364 417.64 611.529 416.86 611.546C416.704 610.263 416.271 609.327 415.56 608.738C414.85 608.149 413.801 607.854 412.414 607.854C411.132 607.854 410.144 608.079 409.45 608.53C408.757 608.963 408.41 609.587 408.41 610.402C408.41 610.974 408.54 611.442 408.8 611.806C409.06 612.17 409.494 612.491 410.1 612.768C410.724 613.028 411.608 613.279 412.752 613.522C414.52 613.903 415.916 614.337 416.938 614.822C417.961 615.307 418.698 615.888 419.148 616.564C419.616 617.24 419.85 618.081 419.85 619.086C419.85 620.681 419.192 621.937 417.874 622.856C416.574 623.775 414.815 624.234 412.596 624.234ZM432.189 608.244H425.871C425.871 606.615 426.625 605.8 428.133 605.8H441.263C441.263 606.597 441.072 607.204 440.691 607.62C440.309 608.036 439.746 608.244 439.001 608.244H434.971V622.024C434.971 622.735 434.728 623.281 434.243 623.662C433.775 624.043 433.09 624.234 432.189 624.234V608.244ZM456.322 624.234C454.918 624.234 453.652 623.948 452.526 623.376C451.399 622.804 450.515 622.024 449.874 621.036C449.232 620.031 448.912 618.904 448.912 617.656V607.776C448.912 607.065 449.154 606.519 449.64 606.138C450.125 605.757 450.818 605.566 451.72 605.566V617.656C451.72 618.887 452.136 619.883 452.968 620.646C453.817 621.391 454.935 621.764 456.322 621.764C457.708 621.764 458.818 621.391 459.65 620.646C460.499 619.883 460.924 618.887 460.924 617.656V607.776C460.924 607.048 461.158 606.502 461.626 606.138C462.111 605.757 462.813 605.566 463.732 605.566V617.656C463.732 618.904 463.411 620.031 462.77 621.036C462.128 622.041 461.244 622.83 460.118 623.402C458.991 623.957 457.726 624.234 456.322 624.234ZM473.674 624C473.275 624 472.937 623.879 472.66 623.636C472.382 623.376 472.244 623.064 472.244 622.7V607.1C472.244 606.719 472.374 606.407 472.634 606.164C472.911 605.921 473.258 605.8 473.674 605.8H479.654C481.144 605.8 482.462 606.086 483.606 606.658C484.767 607.213 485.66 608.001 486.284 609.024C486.925 610.047 487.246 611.217 487.246 612.534V617.214C487.246 618.531 486.925 619.71 486.284 620.75C485.642 621.773 484.741 622.57 483.58 623.142C482.436 623.714 481.127 624 479.654 624H473.674ZM479.394 621.582C481.006 621.582 482.254 621.209 483.138 620.464C484.022 619.701 484.464 618.627 484.464 617.24V612.482C484.464 611.13 484.022 610.081 483.138 609.336C482.254 608.591 481.006 608.218 479.394 608.218H475.052V621.582H479.394ZM495.573 607.1C495.573 606.736 495.711 606.433 495.989 606.19C496.266 605.93 496.604 605.8 497.003 605.8H508.547C508.547 606.632 508.382 607.247 508.053 607.646C507.741 608.027 507.247 608.218 506.571 608.218H498.381V613.6H505.531C505.531 614.432 505.375 615.047 505.063 615.446C504.751 615.827 504.257 616.018 503.581 616.018H498.381V621.582H507.117C507.775 621.582 508.261 621.781 508.573 622.18C508.902 622.561 509.067 623.168 509.067 624H497.003C496.604 624 496.266 623.879 495.989 623.636C495.711 623.376 495.573 623.064 495.573 622.7V607.1ZM517.073 607.88C517.073 607.169 517.307 606.606 517.775 606.19C518.243 605.774 518.876 605.566 519.673 605.566L529.345 620.36L529.553 620.204L528.695 618.774V605.566C529.597 605.566 530.281 605.757 530.749 606.138C531.217 606.502 531.451 607.048 531.451 607.776V622.154C531.451 622.743 531.226 623.237 530.775 623.636C530.342 624.035 529.805 624.234 529.163 624.234L519.179 608.946L518.971 609.128L519.829 610.558V622.024C519.829 623.497 518.911 624.234 517.073 624.234V607.88ZM544.872 608.244H538.554C538.554 606.615 539.308 605.8 540.816 605.8H553.946C553.946 606.597 553.755 607.204 553.374 607.62C552.993 608.036 552.429 608.244 551.684 608.244H547.654V622.024C547.654 622.735 547.411 623.281 546.926 623.662C546.458 624.043 545.773 624.234 544.872 624.234V608.244ZM579.895 624.234C579.184 624.234 578.603 624.069 578.153 623.74C577.702 623.411 577.399 622.934 577.243 622.31L573.031 605.852C573.36 605.661 573.759 605.566 574.227 605.566C574.781 605.566 575.241 605.696 575.605 605.956C575.969 606.216 576.211 606.589 576.333 607.074L578.933 618.592L578.491 620.282L578.673 620.334L582.651 606.502C582.72 606.207 582.867 605.982 583.093 605.826C583.318 605.653 583.587 605.566 583.899 605.566C584.193 605.566 584.453 605.653 584.679 605.826C584.921 605.982 585.086 606.207 585.173 606.502L588.527 618.722L588.111 620.49L588.319 620.542L591.491 607.074C591.595 606.606 591.829 606.242 592.193 605.982C592.557 605.705 593.007 605.566 593.545 605.566C594.03 605.566 594.446 605.661 594.793 605.852L590.555 622.31C590.399 622.934 590.087 623.411 589.619 623.74C589.168 624.069 588.587 624.234 587.877 624.234L583.613 608.92L583.431 608.998L583.795 610.324L579.895 624.234ZM602.797 607.1C602.797 606.736 602.936 606.433 603.213 606.19C603.491 605.93 603.829 605.8 604.227 605.8H615.771C615.771 606.632 615.607 607.247 615.277 607.646C614.965 608.027 614.471 608.218 613.795 608.218H605.605V613.6H612.755C612.755 614.432 612.599 615.047 612.287 615.446C611.975 615.827 611.481 616.018 610.805 616.018H605.605V621.582H614.341C615 621.582 615.485 621.781 615.797 622.18C616.127 622.561 616.291 623.168 616.291 624H604.227C603.829 624 603.491 623.879 603.213 623.636C602.936 623.376 602.797 623.064 602.797 622.7V607.1ZM625.754 624C625.355 624 625.009 623.861 624.714 623.584C624.437 623.289 624.298 622.943 624.298 622.544V607.776C624.298 606.303 625.234 605.566 627.106 605.566V621.556H634.75C635.426 621.556 635.946 621.764 636.31 622.18C636.674 622.596 636.856 623.203 636.856 624H625.754ZM646.061 624C645.663 624 645.316 623.861 645.021 623.584C644.744 623.289 644.605 622.943 644.605 622.544V607.776C644.605 606.303 645.541 605.566 647.413 605.566V621.556H655.057C655.733 621.556 656.253 621.764 656.617 622.18C656.981 622.596 657.163 623.203 657.163 624H646.061ZM664.913 607.88C664.913 607.169 665.147 606.606 665.615 606.19C666.083 605.774 666.716 605.566 667.513 605.566L677.185 620.36L677.393 620.204L676.535 618.774V605.566C677.436 605.566 678.121 605.757 678.589 606.138C679.057 606.502 679.291 607.048 679.291 607.776V622.154C679.291 622.743 679.066 623.237 678.615 623.636C678.182 624.035 677.644 624.234 677.003 624.234L667.019 608.946L666.811 609.128L667.669 610.558V622.024C667.669 623.497 666.75 624.234 664.913 624.234V607.88ZM687.912 607.1C687.912 606.736 688.05 606.433 688.328 606.19C688.605 605.93 688.943 605.8 689.342 605.8H700.886C700.886 606.632 700.721 607.247 700.392 607.646C700.08 608.027 699.586 608.218 698.91 608.218H690.72V613.6H697.87C697.87 614.432 697.714 615.047 697.402 615.446C697.09 615.827 696.596 616.018 695.92 616.018H690.72V621.582H699.456C700.114 621.582 700.6 621.781 700.912 622.18C701.241 622.561 701.406 623.168 701.406 624H689.342C688.943 624 688.605 623.879 688.328 623.636C688.05 623.376 687.912 623.064 687.912 622.7V607.1ZM715.486 624.234C713.996 624.234 712.696 624.035 711.586 623.636C710.494 623.22 709.662 622.665 709.09 621.972C708.518 621.279 708.232 620.507 708.232 619.658C708.232 619.017 708.423 618.514 708.804 618.15C709.186 617.769 709.784 617.578 710.598 617.578C710.616 618.999 711.058 620.083 711.924 620.828C712.791 621.573 714.004 621.946 715.564 621.946C716.986 621.946 718.078 621.703 718.84 621.218C719.62 620.733 720.01 620.031 720.01 619.112C720.01 618.54 719.863 618.072 719.568 617.708C719.291 617.344 718.797 617.023 718.086 616.746C717.393 616.451 716.405 616.165 715.122 615.888C713.493 615.524 712.202 615.108 711.248 614.64C710.295 614.172 709.602 613.609 709.168 612.95C708.735 612.274 708.518 611.442 708.518 610.454C708.518 609.483 708.796 608.634 709.35 607.906C709.922 607.161 710.72 606.589 711.742 606.19C712.765 605.774 713.952 605.566 715.304 605.566C716.587 605.566 717.731 605.748 718.736 606.112C719.759 606.459 720.556 606.953 721.128 607.594C721.718 608.235 722.012 608.972 722.012 609.804C722.012 610.324 721.83 610.74 721.466 611.052C721.102 611.364 720.53 611.529 719.75 611.546C719.594 610.263 719.161 609.327 718.45 608.738C717.74 608.149 716.691 607.854 715.304 607.854C714.022 607.854 713.034 608.079 712.34 608.53C711.647 608.963 711.3 609.587 711.3 610.402C711.3 610.974 711.43 611.442 711.69 611.806C711.95 612.17 712.384 612.491 712.99 612.768C713.614 613.028 714.498 613.279 715.642 613.522C717.41 613.903 718.806 614.337 719.828 614.822C720.851 615.307 721.588 615.888 722.038 616.564C722.506 617.24 722.74 618.081 722.74 619.086C722.74 620.681 722.082 621.937 720.764 622.856C719.464 623.775 717.705 624.234 715.486 624.234ZM737.52 624.234C736.03 624.234 734.73 624.035 733.62 623.636C732.528 623.22 731.696 622.665 731.124 621.972C730.552 621.279 730.266 620.507 730.266 619.658C730.266 619.017 730.457 618.514 730.838 618.15C731.22 617.769 731.818 617.578 732.632 617.578C732.65 618.999 733.092 620.083 733.958 620.828C734.825 621.573 736.038 621.946 737.598 621.946C739.02 621.946 740.112 621.703 740.874 621.218C741.654 620.733 742.044 620.031 742.044 619.112C742.044 618.54 741.897 618.072 741.602 617.708C741.325 617.344 740.831 617.023 740.12 616.746C739.427 616.451 738.439 616.165 737.156 615.888C735.527 615.524 734.236 615.108 733.282 614.64C732.329 614.172 731.636 613.609 731.202 612.95C730.769 612.274 730.552 611.442 730.552 610.454C730.552 609.483 730.83 608.634 731.384 607.906C731.956 607.161 732.754 606.589 733.776 606.19C734.799 605.774 735.986 605.566 737.338 605.566C738.621 605.566 739.765 605.748 740.77 606.112C741.793 606.459 742.59 606.953 743.162 607.594C743.752 608.235 744.046 608.972 744.046 609.804C744.046 610.324 743.864 610.74 743.5 611.052C743.136 611.364 742.564 611.529 741.784 611.546C741.628 610.263 741.195 609.327 740.484 608.738C739.774 608.149 738.725 607.854 737.338 607.854C736.056 607.854 735.068 608.079 734.374 608.53C733.681 608.963 733.334 609.587 733.334 610.402C733.334 610.974 733.464 611.442 733.724 611.806C733.984 612.17 734.418 612.491 735.024 612.768C735.648 613.028 736.532 613.279 737.676 613.522C739.444 613.903 740.84 614.337 741.862 614.822C742.885 615.307 743.622 615.888 744.072 616.564C744.54 617.24 744.774 618.081 744.774 619.086C744.774 620.681 744.116 621.937 742.798 622.856C741.498 623.775 739.739 624.234 737.52 624.234ZM772.055 624.234C770.565 624.234 769.239 623.957 768.077 623.402C766.916 622.83 766.015 622.041 765.373 621.036C764.732 620.031 764.411 618.887 764.411 617.604V612.144C764.411 610.861 764.732 609.726 765.373 608.738C766.015 607.733 766.907 606.953 768.051 606.398C769.195 605.843 770.504 605.566 771.977 605.566C773.451 605.566 774.759 605.8 775.903 606.268C777.065 606.719 777.966 607.351 778.607 608.166C779.249 608.981 779.569 609.917 779.569 610.974C779.569 611.529 779.387 611.971 779.023 612.3C778.659 612.612 778.174 612.768 777.567 612.768C777.342 612.768 777.082 612.742 776.787 612.69C776.822 612.413 776.839 612.057 776.839 611.624C776.839 610.913 776.631 610.289 776.215 609.752C775.799 609.197 775.219 608.773 774.473 608.478C773.745 608.166 772.913 608.01 771.977 608.01C771.059 608.01 770.235 608.183 769.507 608.53C768.779 608.877 768.207 609.371 767.791 610.012C767.393 610.636 767.193 611.347 767.193 612.144V617.604C767.193 618.419 767.401 619.147 767.817 619.788C768.233 620.412 768.805 620.906 769.533 621.27C770.279 621.617 771.119 621.79 772.055 621.79C773.511 621.79 774.69 621.461 775.591 620.802C776.51 620.126 776.969 619.251 776.969 618.176C776.969 617.847 776.952 617.491 776.917 617.11C777.16 617.058 777.394 617.032 777.619 617.032C778.243 617.032 778.746 617.205 779.127 617.552C779.509 617.899 779.699 618.367 779.699 618.956C779.699 619.979 779.379 620.897 778.737 621.712C778.096 622.509 777.195 623.133 776.033 623.584C774.872 624.017 773.546 624.234 772.055 624.234ZM794.69 624.234C793.252 624.234 791.952 623.957 790.79 623.402C789.646 622.83 788.745 622.05 788.086 621.062C787.445 620.074 787.124 618.982 787.124 617.786V611.962C787.124 610.766 787.445 609.683 788.086 608.712C788.745 607.741 789.646 606.979 790.79 606.424C791.952 605.852 793.252 605.566 794.69 605.566C796.129 605.566 797.42 605.852 798.564 606.424C799.726 606.979 800.636 607.741 801.294 608.712C801.953 609.683 802.282 610.766 802.282 611.962V617.786C802.282 618.982 801.953 620.074 801.294 621.062C800.636 622.05 799.726 622.83 798.564 623.402C797.42 623.957 796.129 624.234 794.69 624.234ZM794.69 621.79C796.198 621.79 797.377 621.426 798.226 620.698C799.093 619.97 799.526 618.991 799.526 617.76V612.014C799.526 610.783 799.093 609.804 798.226 609.076C797.377 608.348 796.198 607.984 794.69 607.984C793.182 607.984 791.995 608.348 791.128 609.076C790.279 609.804 789.854 610.783 789.854 612.014V617.76C789.854 618.991 790.279 619.97 791.128 620.698C791.995 621.426 793.182 621.79 794.69 621.79ZM810.289 607.776C810.289 607.083 810.541 606.545 811.043 606.164C811.546 605.765 812.231 605.566 813.097 605.566L819.103 620.204L818.583 621.556L818.791 621.66L825.161 605.566C826.028 605.566 826.713 605.765 827.215 606.164C827.718 606.563 827.969 607.109 827.969 607.802V624.234C826.149 624.234 825.239 623.506 825.239 622.05V611.988L825.967 609.986L825.733 609.908L820.299 623.454C820.195 623.679 820.039 623.861 819.831 624C819.623 624.156 819.398 624.234 819.155 624.234C818.895 624.234 818.661 624.165 818.453 624.026C818.245 623.887 818.089 623.697 817.985 623.454L812.525 609.882L812.291 609.986L813.045 611.962V622.05C813.045 622.761 812.811 623.307 812.343 623.688C811.875 624.052 811.191 624.234 810.289 624.234V607.776ZM836.64 607.1C836.64 606.719 836.77 606.407 837.03 606.164C837.307 605.921 837.654 605.8 838.07 605.8H845.532C846.71 605.8 847.75 606.043 848.652 606.528C849.57 606.996 850.281 607.672 850.784 608.556C851.286 609.423 851.538 610.428 851.538 611.572C851.538 612.733 851.286 613.756 850.784 614.64C850.298 615.524 849.596 616.209 848.678 616.694C847.776 617.162 846.728 617.396 845.532 617.396H839.448V622.024C839.448 622.735 839.205 623.281 838.72 623.662C838.234 624.043 837.541 624.234 836.64 624.234V607.1ZM845.532 614.952C846.537 614.952 847.326 614.657 847.898 614.068C848.47 613.461 848.756 612.629 848.756 611.572C848.756 610.549 848.461 609.743 847.872 609.154C847.3 608.547 846.52 608.244 845.532 608.244H839.448V614.952H845.532ZM858.095 624.234C857.488 624.147 857.02 623.913 856.691 623.532C856.362 623.151 856.197 622.691 856.197 622.154C856.197 621.755 856.284 621.357 856.457 620.958L862.593 606.476C862.853 605.869 863.312 605.566 863.971 605.566C864.612 605.566 865.054 605.869 865.297 606.476L871.433 620.958C871.606 621.357 871.693 621.755 871.693 622.154C871.693 622.691 871.528 623.151 871.199 623.532C870.87 623.913 870.402 624.147 869.795 624.234L867.585 618.956H860.331L858.095 624.234ZM866.727 616.564L863.529 608.53L863.295 608.634L863.815 609.96L861.163 616.564H866.727ZM879.718 607.88C879.718 607.169 879.952 606.606 880.42 606.19C880.888 605.774 881.52 605.566 882.318 605.566L891.99 620.36L892.198 620.204L891.34 618.774V605.566C892.241 605.566 892.926 605.757 893.394 606.138C893.862 606.502 894.096 607.048 894.096 607.776V622.154C894.096 622.743 893.87 623.237 893.42 623.636C892.986 624.035 892.449 624.234 891.808 624.234L881.824 608.946L881.616 609.128L882.474 610.558V622.024C882.474 623.497 881.555 624.234 879.718 624.234V607.88ZM903.236 607.776C903.236 607.065 903.479 606.519 903.964 606.138C904.45 605.757 905.143 605.566 906.044 605.566V622.024C906.044 622.735 905.802 623.281 905.316 623.662C904.831 624.043 904.138 624.234 903.236 624.234V607.776ZM922.171 624.234C920.733 624.234 919.433 623.957 918.271 623.402C917.127 622.83 916.226 622.05 915.567 621.062C914.926 620.074 914.605 618.982 914.605 617.786V611.962C914.605 610.766 914.926 609.683 915.567 608.712C916.226 607.741 917.127 606.979 918.271 606.424C919.433 605.852 920.733 605.566 922.171 605.566C923.61 605.566 924.901 605.852 926.045 606.424C927.207 606.979 928.117 607.741 928.775 608.712C929.434 609.683 929.763 610.766 929.763 611.962V617.786C929.763 618.982 929.434 620.074 928.775 621.062C928.117 622.05 927.207 622.83 926.045 623.402C924.901 623.957 923.61 624.234 922.171 624.234ZM922.171 621.79C923.679 621.79 924.858 621.426 925.707 620.698C926.574 619.97 927.007 618.991 927.007 617.76V612.014C927.007 610.783 926.574 609.804 925.707 609.076C924.858 608.348 923.679 607.984 922.171 607.984C920.663 607.984 919.476 608.348 918.609 609.076C917.76 609.804 917.335 610.783 917.335 612.014V617.76C917.335 618.991 917.76 619.97 918.609 620.698C919.476 621.426 920.663 621.79 922.171 621.79ZM937.771 607.88C937.771 607.169 938.005 606.606 938.473 606.19C938.941 605.774 939.573 605.566 940.371 605.566L950.043 620.36L950.251 620.204L949.393 618.774V605.566C950.294 605.566 950.979 605.757 951.447 606.138C951.915 606.502 952.149 607.048 952.149 607.776V622.154C952.149 622.743 951.923 623.237 951.473 623.636C951.039 624.035 950.502 624.234 949.861 624.234L939.877 608.946L939.669 609.128L940.527 610.558V622.024C940.527 623.497 939.608 624.234 937.771 624.234V607.88Z" fill="black"/>
</svg>
