<svg width="600" height="537" viewBox="0 0 600 537" fill="none" xmlns="http://www.w3.org/2000/svg">
<path d="M209.435 486.266C212.845 487.804 214.49 489.621 217.964 490.738C247.485 504.847 279.585 513.353 312.088 515.463C364.554 518.281 418.071 506.148 462.3 477.921C478.777 467.994 493.887 456.031 507.482 442.53L507.646 442.398C508.863 441.393 510.465 439.552 512.073 437.696L512.512 437.189C513.899 435.59 515.266 434.034 516.368 433.05C535.691 411.796 551.552 387.368 562.936 361.06C572.869 336.901 579.133 311.353 581.715 285.361C584.284 259.309 581.83 233.017 576.606 207.477C571.531 181.778 561.017 157.397 548.024 134.735C534.897 112.085 518.26 91.3165 498.531 73.898C478.936 56.4116 456.84 41.508 432.724 30.6181C408.576 19.8694 382.811 12.8132 356.437 9.3817C303.539 2.62323 248.59 13.4582 200.925 39.0192C246.643 9.91444 302.47 -3.32569 357.273 0.709024C384.656 3.16902 411.712 9.60368 437.365 19.9425C463.002 30.4301 486.549 45.6419 507.71 63.4939C512.793 68.1998 518.343 72.4486 523.032 77.5645L537.243 92.8024C538.215 94.0455 539.189 95.2881 540.162 96.532L541.328 98.0254C548.519 107.24 555.598 116.567 561.402 126.757C575.577 150.594 587.141 176.416 593.018 203.735C599.011 230.931 601.556 259.035 599.029 286.868C596.418 314.646 589.872 342.059 579.303 367.973C564.509 401.642 543.029 432.463 516.368 457.757C513.454 460.52 510.524 463.262 507.482 465.89C496.132 475.703 484.009 484.601 471.044 492.237C447.178 506.597 421.113 517.568 393.858 523.41C366.726 529.369 338.692 532.028 311.037 529.239C278.597 526.413 246.959 517.179 217.964 502.834C214.979 501.358 212.003 499.878 209.076 498.287C191.932 488.98 175.794 477.884 161.217 465.02C120.161 428.587 90.6478 379.51 79.4417 326.489C94.5209 378.426 125.15 425.247 166.82 458.416C179.937 469.117 194.18 478.257 209.076 486.108L209.435 486.266Z" fill="#3BA86C"/>
<path d="M85.9142 416.381C91.6547 422.61 98.9548 426.93 105.685 431.748C112.697 436.172 120.44 439.332 127.713 442.994L117.654 435.898C114.405 433.434 110.736 431.606 107.852 428.698C101.994 423.074 95.4118 418.364 90.7186 411.8C88.3215 408.612 85.2764 405.962 83.3156 402.494L77.1204 392.43C73.8715 385.291 70.2441 378.312 68.5631 370.642C64.4769 355.607 63.5119 339.781 65.3369 324.205C67.0241 310.659 70.3388 296.816 75.3097 284.299C88.8236 288.15 102.099 296.089 110.14 307.448C114.952 313.757 117.781 321.388 119.479 329.304L120.495 335.356C120.654 337.413 120.654 339.507 120.742 341.586L121.219 355.161C122.106 374 128.34 392.046 137.06 408.101C146.179 423.971 157.708 438.355 171.765 449.557C159.998 436.061 150.379 420.96 143.383 404.933C140.048 396.875 136.945 388.717 135.303 380.237C134.137 376.086 133.83 371.772 133.042 367.569C132.795 363.294 132.242 359.054 132.371 354.8C132.486 350.479 132.686 346.549 132.674 341.526C132.665 339.131 132.744 336.739 132.641 334.327L131.725 327.099C130.083 317.561 126.933 307.832 121.09 299.664C115.355 291.488 107.804 284.77 99.4733 279.718C90.9922 274.656 82.3465 271.089 72.1494 269.212L66.9644 268.25L64.8452 273.072C61.2033 281.387 58.6397 289.276 56.5965 297.659C54.4361 305.922 53.0967 314.402 52.4012 322.948C51.0536 340.002 52.6605 357.561 58.4072 373.823C63.8946 390.101 73.388 405.084 85.9142 416.381Z" fill="#82BF22"/>
<path d="M91.4893 510.151L80.8842 515.925L76.0233 518.526L70.969 520.459C64.1794 522.715 57.1338 523.969 50.1874 523.128C38.0979 522.127 26.1782 515.69 17.1908 507.271C24.4221 497.95 33.3912 489.267 42.8438 481.926C53.867 473.494 66.3538 467.096 79.6324 463.401C92.911 459.792 107.167 458.789 121.054 461.643C128.189 462.231 134.837 465.009 141.784 466.994C148.521 469.483 154.942 472.896 161.747 475.724C155.674 471.755 149.734 467.221 143.156 463.879C136.403 460.941 129.838 457.162 122.463 455.525C108.121 450.949 92.3047 450.417 77.3065 453.548C62.2194 456.467 48 463.187 35.5368 471.943C22.9821 480.84 12.2881 491.354 2.95051 504.127L0 508.14L3.33206 511.977C9.46044 519.012 16.1272 524.026 23.902 528.267C31.5932 532.398 40.2226 535.159 49.1447 535.861C58.1059 536.647 67.0306 534.644 75.1008 531.56L81.0906 528.967C82.9644 527.956 84.7703 526.805 86.6101 525.729C90.5014 523.438 93.3657 521.519 96.6115 519.469C109.493 511.661 124.46 507.224 139.787 505.155C155.188 503.032 171.088 503.724 186.768 506.532C171.835 500.703 155.603 498.515 139.301 498.454C123.033 498.972 106.349 502.322 91.4893 510.151Z" fill="#3BA86C"/>
<path d="M173.834 233.952H156.482C156.482 228.384 159.002 225.6 164.042 225.6H200.834C200.834 231.168 198.29 233.952 193.202 233.952H183.482V269.52C183.482 271.824 182.666 273.6 181.034 274.848C179.402 276.048 177.002 276.648 173.834 276.648V233.952ZM210.619 232.08C210.619 229.776 211.435 228.024 213.067 226.824C214.699 225.576 217.099 224.952 220.267 224.952V246.408H241.795V232.08C241.795 229.728 242.611 227.952 244.243 226.752C245.923 225.552 248.323 224.952 251.443 224.952V269.52C251.443 271.824 250.603 273.6 248.923 274.848C247.291 276.048 244.915 276.648 241.795 276.648V254.76H220.267V269.52C220.267 271.824 219.427 273.6 217.747 274.848C216.115 276.048 213.739 276.648 210.619 276.648V232.08ZM263.508 229.992C263.508 228.792 263.964 227.76 264.876 226.896C265.836 226.032 266.988 225.6 268.332 225.6H300.444C300.444 228.48 299.94 230.592 298.932 231.936C297.972 233.232 296.388 233.88 294.18 233.88H273.156V246.408H292.308C292.308 249.288 291.804 251.4 290.796 252.744C289.836 254.04 288.252 254.688 286.044 254.688H273.156V267.72H295.692C297.852 267.72 299.412 268.392 300.372 269.736C301.38 271.032 301.884 273.12 301.884 276H268.332C266.988 276 265.836 275.592 264.876 274.776C263.964 273.912 263.508 272.856 263.508 271.608V229.992ZM334.622 232.584C334.622 230.232 335.414 228.384 336.998 227.04C338.582 225.648 340.718 224.952 343.406 224.952L367.742 262.968L368.462 262.392L365.51 257.496V224.952C368.63 224.952 370.982 225.552 372.566 226.752C374.198 227.952 375.014 229.728 375.014 232.08V270.096C375.014 271.872 374.246 273.408 372.71 274.704C371.222 276 369.494 276.648 367.526 276.648L341.894 236.544L341.174 237.192L344.126 242.088V269.52C344.126 271.872 343.31 273.648 341.678 274.848C340.094 276.048 337.742 276.648 334.622 276.648V232.584ZM387.019 229.992C387.019 228.792 387.475 227.76 388.387 226.896C389.347 226.032 390.499 225.6 391.843 225.6H423.955C423.955 228.48 423.451 230.592 422.443 231.936C421.483 233.232 419.899 233.88 417.691 233.88H396.667V246.408H415.819C415.819 249.288 415.315 251.4 414.307 252.744C413.347 254.04 411.763 254.688 409.555 254.688H396.667V267.72H419.203C421.363 267.72 422.923 268.392 423.883 269.736C424.891 271.032 425.395 273.12 425.395 276H391.843C390.499 276 389.347 275.592 388.387 274.776C387.475 273.912 387.019 272.856 387.019 271.608V229.992ZM453.943 276.648C449.623 276.648 445.855 276.12 442.639 275.064C439.423 274.008 436.951 272.52 435.223 270.6C433.543 268.632 432.703 266.352 432.703 263.76C432.703 259.824 435.367 257.856 440.695 257.856C440.887 261.504 442.111 264.264 444.367 266.136C446.671 268.008 449.887 268.944 454.015 268.944C457.423 268.944 460.063 268.368 461.935 267.216C463.807 266.016 464.743 264.36 464.743 262.248C464.743 260.856 464.383 259.728 463.663 258.864C462.943 257.952 461.719 257.16 459.991 256.488C458.263 255.768 455.743 255.048 452.431 254.328C447.727 253.224 444.007 252 441.271 250.656C438.583 249.312 436.639 247.704 435.439 245.832C434.239 243.912 433.639 241.536 433.639 238.704C433.639 235.968 434.431 233.568 436.015 231.504C437.647 229.44 439.927 227.832 442.855 226.68C445.831 225.528 449.239 224.952 453.079 224.952C456.775 224.952 460.063 225.456 462.943 226.464C465.871 227.424 468.151 228.792 469.783 230.568C471.463 232.344 472.303 234.384 472.303 236.688C472.303 240.24 469.735 242.088 464.599 242.232C464.311 238.92 463.255 236.496 461.431 234.96C459.607 233.424 456.823 232.656 453.079 232.656C449.863 232.656 447.391 233.184 445.663 234.24C443.935 235.296 443.071 236.784 443.071 238.704C443.071 240.048 443.407 241.176 444.079 242.088C444.751 242.952 445.879 243.72 447.463 244.392C449.047 245.016 451.303 245.664 454.231 246.336C459.175 247.44 463.087 248.688 465.967 250.08C468.847 251.424 470.935 253.08 472.231 255.048C473.527 256.968 474.175 259.344 474.175 262.176C474.175 265.104 473.335 267.672 471.655 269.88C470.023 272.04 467.671 273.72 464.599 274.92C461.575 276.072 458.023 276.648 453.943 276.648ZM496.597 233.952H479.245C479.245 228.384 481.765 225.6 486.805 225.6H523.597C523.597 231.168 521.053 233.952 515.965 233.952H506.245V269.52C506.245 271.824 505.429 273.6 503.797 274.848C502.165 276.048 499.765 276.648 496.597 276.648V233.952Z" fill="black"/>
<path d="M195.552 301.126C194.749 301.126 194.049 301.019 193.452 300.804C192.864 300.58 192.416 300.281 192.108 299.908C191.8 299.535 191.646 299.119 191.646 298.662C191.646 298.317 191.749 298.046 191.954 297.85C192.159 297.645 192.481 297.542 192.92 297.542C192.929 298.307 193.167 298.891 193.634 299.292C194.101 299.693 194.754 299.894 195.594 299.894C196.359 299.894 196.947 299.763 197.358 299.502C197.778 299.241 197.988 298.863 197.988 298.368C197.988 298.06 197.909 297.808 197.75 297.612C197.601 297.416 197.335 297.243 196.952 297.094C196.579 296.935 196.047 296.781 195.356 296.632C194.479 296.436 193.783 296.212 193.27 295.96C192.757 295.708 192.383 295.405 192.15 295.05C191.917 294.686 191.8 294.238 191.8 293.706C191.8 293.183 191.949 292.726 192.248 292.334C192.556 291.933 192.985 291.625 193.536 291.41C194.087 291.186 194.726 291.074 195.454 291.074C196.145 291.074 196.761 291.172 197.302 291.368C197.853 291.555 198.282 291.821 198.59 292.166C198.907 292.511 199.066 292.908 199.066 293.356C199.066 293.636 198.968 293.86 198.772 294.028C198.576 294.196 198.268 294.285 197.848 294.294C197.764 293.603 197.531 293.099 197.148 292.782C196.765 292.465 196.201 292.306 195.454 292.306C194.763 292.306 194.231 292.427 193.858 292.67C193.485 292.903 193.298 293.239 193.298 293.678C193.298 293.986 193.368 294.238 193.508 294.434C193.648 294.63 193.881 294.803 194.208 294.952C194.544 295.092 195.02 295.227 195.636 295.358C196.588 295.563 197.339 295.797 197.89 296.058C198.441 296.319 198.837 296.632 199.08 296.996C199.332 297.36 199.458 297.813 199.458 298.354C199.458 299.213 199.103 299.889 198.394 300.384C197.694 300.879 196.747 301.126 195.552 301.126ZM206.102 292.516H202.7C202.7 291.639 203.106 291.2 203.918 291.2H210.988C210.988 291.629 210.885 291.956 210.68 292.18C210.474 292.404 210.171 292.516 209.77 292.516H207.6V299.936C207.6 300.319 207.469 300.613 207.208 300.818C206.956 301.023 206.587 301.126 206.102 301.126V292.516ZM219.096 301.126C218.34 301.126 217.659 300.972 217.052 300.664C216.446 300.356 215.97 299.936 215.624 299.404C215.279 298.863 215.106 298.256 215.106 297.584V292.264C215.106 291.881 215.237 291.587 215.498 291.382C215.76 291.177 216.133 291.074 216.618 291.074V297.584C216.618 298.247 216.842 298.783 217.29 299.194C217.748 299.595 218.35 299.796 219.096 299.796C219.843 299.796 220.44 299.595 220.888 299.194C221.346 298.783 221.574 298.247 221.574 297.584V292.264C221.574 291.872 221.7 291.578 221.952 291.382C222.214 291.177 222.592 291.074 223.086 291.074V297.584C223.086 298.256 222.914 298.863 222.568 299.404C222.223 299.945 221.747 300.37 221.14 300.678C220.534 300.977 219.852 301.126 219.096 301.126ZM228.44 301C228.225 301 228.043 300.935 227.894 300.804C227.744 300.664 227.67 300.496 227.67 300.3V291.9C227.67 291.695 227.74 291.527 227.88 291.396C228.029 291.265 228.216 291.2 228.44 291.2H231.66C232.462 291.2 233.172 291.354 233.788 291.662C234.413 291.961 234.894 292.385 235.23 292.936C235.575 293.487 235.748 294.117 235.748 294.826V297.346C235.748 298.055 235.575 298.69 235.23 299.25C234.884 299.801 234.399 300.23 233.774 300.538C233.158 300.846 232.453 301 231.66 301H228.44ZM231.52 299.698C232.388 299.698 233.06 299.497 233.536 299.096C234.012 298.685 234.25 298.107 234.25 297.36V294.798C234.25 294.07 234.012 293.505 233.536 293.104C233.06 292.703 232.388 292.502 231.52 292.502H229.182V299.698H231.52ZM240.231 291.9C240.231 291.704 240.306 291.541 240.455 291.41C240.605 291.27 240.787 291.2 241.001 291.2H247.217C247.217 291.648 247.129 291.979 246.951 292.194C246.783 292.399 246.517 292.502 246.153 292.502H241.743V295.4H245.593C245.593 295.848 245.509 296.179 245.341 296.394C245.173 296.599 244.907 296.702 244.543 296.702H241.743V299.698H246.447C246.802 299.698 247.063 299.805 247.231 300.02C247.409 300.225 247.497 300.552 247.497 301H241.001C240.787 301 240.605 300.935 240.455 300.804C240.306 300.664 240.231 300.496 240.231 300.3V291.9ZM251.809 292.32C251.809 291.937 251.935 291.634 252.187 291.41C252.439 291.186 252.779 291.074 253.209 291.074L258.417 299.04L258.529 298.956L258.067 298.186V291.074C258.552 291.074 258.921 291.177 259.173 291.382C259.425 291.578 259.551 291.872 259.551 292.264V300.006C259.551 300.323 259.429 300.589 259.187 300.804C258.953 301.019 258.664 301.126 258.319 301.126L252.943 292.894L252.831 292.992L253.293 293.762V299.936C253.293 300.729 252.798 301.126 251.809 301.126V292.32ZM266.777 292.516H263.375C263.375 291.639 263.781 291.2 264.593 291.2H271.663C271.663 291.629 271.561 291.956 271.355 292.18C271.15 292.404 270.847 292.516 270.445 292.516H268.275V299.936C268.275 300.319 268.145 300.613 267.883 300.818C267.631 301.023 267.263 301.126 266.777 301.126V292.516ZM285.636 301.126C285.253 301.126 284.94 301.037 284.698 300.86C284.455 300.683 284.292 300.426 284.208 300.09L281.94 291.228C282.117 291.125 282.332 291.074 282.584 291.074C282.882 291.074 283.13 291.144 283.326 291.284C283.522 291.424 283.652 291.625 283.718 291.886L285.118 298.088L284.88 298.998L284.978 299.026L287.12 291.578C287.157 291.419 287.236 291.298 287.358 291.214C287.479 291.121 287.624 291.074 287.792 291.074C287.95 291.074 288.09 291.121 288.212 291.214C288.342 291.298 288.431 291.419 288.478 291.578L290.284 298.158L290.06 299.11L290.172 299.138L291.88 291.886C291.936 291.634 292.062 291.438 292.258 291.298C292.454 291.149 292.696 291.074 292.986 291.074C293.247 291.074 293.471 291.125 293.658 291.228L291.376 300.09C291.292 300.426 291.124 300.683 290.872 300.86C290.629 301.037 290.316 301.126 289.934 301.126L287.638 292.88L287.54 292.922L287.736 293.636L285.636 301.126ZM297.968 291.9C297.968 291.704 298.042 291.541 298.192 291.41C298.341 291.27 298.523 291.2 298.738 291.2H304.954C304.954 291.648 304.865 291.979 304.688 292.194C304.52 292.399 304.254 292.502 303.89 292.502H299.48V295.4H303.33C303.33 295.848 303.246 296.179 303.078 296.394C302.91 296.599 302.644 296.702 302.28 296.702H299.48V299.698H304.184C304.538 299.698 304.8 299.805 304.968 300.02C305.145 300.225 305.234 300.552 305.234 301H298.738C298.523 301 298.341 300.935 298.192 300.804C298.042 300.664 297.968 300.496 297.968 300.3V291.9ZM310.329 301C310.114 301 309.928 300.925 309.769 300.776C309.62 300.617 309.545 300.431 309.545 300.216V292.264C309.545 291.471 310.049 291.074 311.057 291.074V299.684H315.173C315.537 299.684 315.817 299.796 316.013 300.02C316.209 300.244 316.307 300.571 316.307 301H310.329ZM321.264 301C321.049 301 320.863 300.925 320.704 300.776C320.555 300.617 320.48 300.431 320.48 300.216V292.264C320.48 291.471 320.984 291.074 321.992 291.074V299.684H326.108C326.472 299.684 326.752 299.796 326.948 300.02C327.144 300.244 327.242 300.571 327.242 301H321.264ZM331.415 292.32C331.415 291.937 331.541 291.634 331.793 291.41C332.045 291.186 332.385 291.074 332.815 291.074L338.023 299.04L338.135 298.956L337.673 298.186V291.074C338.158 291.074 338.527 291.177 338.779 291.382C339.031 291.578 339.157 291.872 339.157 292.264V300.006C339.157 300.323 339.035 300.589 338.793 300.804C338.559 301.019 338.27 301.126 337.925 301.126L332.549 292.894L332.437 292.992L332.899 293.762V299.936C332.899 300.729 332.404 301.126 331.415 301.126V292.32ZM343.799 291.9C343.799 291.704 343.873 291.541 344.023 291.41C344.172 291.27 344.354 291.2 344.569 291.2H350.785C350.785 291.648 350.696 291.979 350.519 292.194C350.351 292.399 350.085 292.502 349.721 292.502H345.311V295.4H349.161C349.161 295.848 349.077 296.179 348.909 296.394C348.741 296.599 348.475 296.702 348.111 296.702H345.311V299.698H350.015C350.369 299.698 350.631 299.805 350.799 300.02C350.976 300.225 351.065 300.552 351.065 301H344.569C344.354 301 344.172 300.935 344.023 300.804C343.873 300.664 343.799 300.496 343.799 300.3V291.9ZM358.646 301.126C357.844 301.126 357.144 301.019 356.546 300.804C355.958 300.58 355.51 300.281 355.202 299.908C354.894 299.535 354.74 299.119 354.74 298.662C354.74 298.317 354.843 298.046 355.048 297.85C355.254 297.645 355.576 297.542 356.014 297.542C356.024 298.307 356.262 298.891 356.728 299.292C357.195 299.693 357.848 299.894 358.688 299.894C359.454 299.894 360.042 299.763 360.452 299.502C360.872 299.241 361.082 298.863 361.082 298.368C361.082 298.06 361.003 297.808 360.844 297.612C360.695 297.416 360.429 297.243 360.046 297.094C359.673 296.935 359.141 296.781 358.45 296.632C357.573 296.436 356.878 296.212 356.364 295.96C355.851 295.708 355.478 295.405 355.244 295.05C355.011 294.686 354.894 294.238 354.894 293.706C354.894 293.183 355.044 292.726 355.342 292.334C355.65 291.933 356.08 291.625 356.63 291.41C357.181 291.186 357.82 291.074 358.548 291.074C359.239 291.074 359.855 291.172 360.396 291.368C360.947 291.555 361.376 291.821 361.684 292.166C362.002 292.511 362.16 292.908 362.16 293.356C362.16 293.636 362.062 293.86 361.866 294.028C361.67 294.196 361.362 294.285 360.942 294.294C360.858 293.603 360.625 293.099 360.242 292.782C359.86 292.465 359.295 292.306 358.548 292.306C357.858 292.306 357.326 292.427 356.952 292.67C356.579 292.903 356.392 293.239 356.392 293.678C356.392 293.986 356.462 294.238 356.602 294.434C356.742 294.63 356.976 294.803 357.302 294.952C357.638 295.092 358.114 295.227 358.73 295.358C359.682 295.563 360.434 295.797 360.984 296.058C361.535 296.319 361.932 296.632 362.174 296.996C362.426 297.36 362.552 297.813 362.552 298.354C362.552 299.213 362.198 299.889 361.488 300.384C360.788 300.879 359.841 301.126 358.646 301.126ZM370.511 301.126C369.708 301.126 369.008 301.019 368.411 300.804C367.823 300.58 367.375 300.281 367.067 299.908C366.759 299.535 366.605 299.119 366.605 298.662C366.605 298.317 366.708 298.046 366.913 297.85C367.118 297.645 367.44 297.542 367.879 297.542C367.888 298.307 368.126 298.891 368.593 299.292C369.06 299.693 369.713 299.894 370.553 299.894C371.318 299.894 371.906 299.763 372.317 299.502C372.737 299.241 372.947 298.863 372.947 298.368C372.947 298.06 372.868 297.808 372.709 297.612C372.56 297.416 372.294 297.243 371.911 297.094C371.538 296.935 371.006 296.781 370.315 296.632C369.438 296.436 368.742 296.212 368.229 295.96C367.716 295.708 367.342 295.405 367.109 295.05C366.876 294.686 366.759 294.238 366.759 293.706C366.759 293.183 366.908 292.726 367.207 292.334C367.515 291.933 367.944 291.625 368.495 291.41C369.046 291.186 369.685 291.074 370.413 291.074C371.104 291.074 371.72 291.172 372.261 291.368C372.812 291.555 373.241 291.821 373.549 292.166C373.866 292.511 374.025 292.908 374.025 293.356C374.025 293.636 373.927 293.86 373.731 294.028C373.535 294.196 373.227 294.285 372.807 294.294C372.723 293.603 372.49 293.099 372.107 292.782C371.724 292.465 371.16 292.306 370.413 292.306C369.722 292.306 369.19 292.427 368.817 292.67C368.444 292.903 368.257 293.239 368.257 293.678C368.257 293.986 368.327 294.238 368.467 294.434C368.607 294.63 368.84 294.803 369.167 294.952C369.503 295.092 369.979 295.227 370.595 295.358C371.547 295.563 372.298 295.797 372.849 296.058C373.4 296.319 373.796 296.632 374.039 296.996C374.291 297.36 374.417 297.813 374.417 298.354C374.417 299.213 374.062 299.889 373.353 300.384C372.653 300.879 371.706 301.126 370.511 301.126ZM389.107 301.126C388.304 301.126 387.59 300.977 386.965 300.678C386.339 300.37 385.854 299.945 385.509 299.404C385.163 298.863 384.991 298.247 384.991 297.556V294.616C384.991 293.925 385.163 293.314 385.509 292.782C385.854 292.241 386.335 291.821 386.951 291.522C387.567 291.223 388.271 291.074 389.065 291.074C389.858 291.074 390.563 291.2 391.179 291.452C391.804 291.695 392.289 292.035 392.635 292.474C392.98 292.913 393.153 293.417 393.153 293.986C393.153 294.285 393.055 294.523 392.859 294.7C392.663 294.868 392.401 294.952 392.075 294.952C391.953 294.952 391.813 294.938 391.655 294.91C391.673 294.761 391.683 294.569 391.683 294.336C391.683 293.953 391.571 293.617 391.347 293.328C391.123 293.029 390.81 292.801 390.409 292.642C390.017 292.474 389.569 292.39 389.065 292.39C388.57 292.39 388.127 292.483 387.735 292.67C387.343 292.857 387.035 293.123 386.811 293.468C386.596 293.804 386.489 294.187 386.489 294.616V297.556C386.489 297.995 386.601 298.387 386.825 298.732C387.049 299.068 387.357 299.334 387.749 299.53C388.15 299.717 388.603 299.81 389.107 299.81C389.891 299.81 390.525 299.633 391.011 299.278C391.505 298.914 391.753 298.443 391.753 297.864C391.753 297.687 391.743 297.495 391.725 297.29C391.855 297.262 391.981 297.248 392.103 297.248C392.439 297.248 392.709 297.341 392.915 297.528C393.12 297.715 393.223 297.967 393.223 298.284C393.223 298.835 393.05 299.329 392.705 299.768C392.359 300.197 391.874 300.533 391.249 300.776C390.623 301.009 389.909 301.126 389.107 301.126ZM401.295 301.126C400.52 301.126 399.82 300.977 399.195 300.678C398.579 300.37 398.093 299.95 397.739 299.418C397.393 298.886 397.221 298.298 397.221 297.654V294.518C397.221 293.874 397.393 293.291 397.739 292.768C398.093 292.245 398.579 291.835 399.195 291.536C399.82 291.228 400.52 291.074 401.295 291.074C402.069 291.074 402.765 291.228 403.381 291.536C404.006 291.835 404.496 292.245 404.851 292.768C405.205 293.291 405.383 293.874 405.383 294.518V297.654C405.383 298.298 405.205 298.886 404.851 299.418C404.496 299.95 404.006 300.37 403.381 300.678C402.765 300.977 402.069 301.126 401.295 301.126ZM401.295 299.81C402.107 299.81 402.741 299.614 403.199 299.222C403.665 298.83 403.899 298.303 403.899 297.64V294.546C403.899 293.883 403.665 293.356 403.199 292.964C402.741 292.572 402.107 292.376 401.295 292.376C400.483 292.376 399.843 292.572 399.377 292.964C398.919 293.356 398.691 293.883 398.691 294.546V297.64C398.691 298.303 398.919 298.83 399.377 299.222C399.843 299.614 400.483 299.81 401.295 299.81ZM409.694 292.264C409.694 291.891 409.83 291.601 410.1 291.396C410.371 291.181 410.74 291.074 411.206 291.074L414.44 298.956L414.16 299.684L414.272 299.74L417.702 291.074C418.169 291.074 418.538 291.181 418.808 291.396C419.079 291.611 419.214 291.905 419.214 292.278V301.126C418.234 301.126 417.744 300.734 417.744 299.95V294.532L418.136 293.454L418.01 293.412L415.084 300.706C415.028 300.827 414.944 300.925 414.832 301C414.72 301.084 414.599 301.126 414.468 301.126C414.328 301.126 414.202 301.089 414.09 301.014C413.978 300.939 413.894 300.837 413.838 300.706L410.898 293.398L410.772 293.454L411.178 294.518V299.95C411.178 300.333 411.052 300.627 410.8 300.832C410.548 301.028 410.18 301.126 409.694 301.126V292.264ZM423.883 291.9C423.883 291.695 423.953 291.527 424.093 291.396C424.242 291.265 424.429 291.2 424.653 291.2H428.671C429.306 291.2 429.866 291.331 430.351 291.592C430.846 291.844 431.228 292.208 431.499 292.684C431.77 293.151 431.905 293.692 431.905 294.308C431.905 294.933 431.77 295.484 431.499 295.96C431.238 296.436 430.86 296.805 430.365 297.066C429.88 297.318 429.315 297.444 428.671 297.444H425.395V299.936C425.395 300.319 425.264 300.613 425.003 300.818C424.742 301.023 424.368 301.126 423.883 301.126V291.9ZM428.671 296.128C429.212 296.128 429.637 295.969 429.945 295.652C430.253 295.325 430.407 294.877 430.407 294.308C430.407 293.757 430.248 293.323 429.931 293.006C429.623 292.679 429.203 292.516 428.671 292.516H425.395V296.128H428.671ZM435.436 301.126C435.109 301.079 434.857 300.953 434.68 300.748C434.502 300.543 434.414 300.295 434.414 300.006C434.414 299.791 434.46 299.577 434.554 299.362L437.858 291.564C437.998 291.237 438.245 291.074 438.6 291.074C438.945 291.074 439.183 291.237 439.314 291.564L442.618 299.362C442.711 299.577 442.758 299.791 442.758 300.006C442.758 300.295 442.669 300.543 442.492 300.748C442.314 300.953 442.062 301.079 441.736 301.126L440.546 298.284H436.64L435.436 301.126ZM440.084 296.996L438.362 292.67L438.236 292.726L438.516 293.44L437.088 296.996H440.084ZM447.079 292.32C447.079 291.937 447.205 291.634 447.457 291.41C447.709 291.186 448.049 291.074 448.479 291.074L453.687 299.04L453.799 298.956L453.337 298.186V291.074C453.822 291.074 454.191 291.177 454.443 291.382C454.695 291.578 454.821 291.872 454.821 292.264V300.006C454.821 300.323 454.699 300.589 454.457 300.804C454.223 301.019 453.934 301.126 453.589 301.126L448.213 292.894L448.101 292.992L448.563 293.762V299.936C448.563 300.729 448.068 301.126 447.079 301.126V292.32ZM459.743 292.264C459.743 291.881 459.873 291.587 460.135 291.382C460.396 291.177 460.769 291.074 461.255 291.074V299.936C461.255 300.319 461.124 300.613 460.863 300.818C460.601 301.023 460.228 301.126 459.743 301.126V292.264ZM469.939 301.126C469.164 301.126 468.464 300.977 467.839 300.678C467.223 300.37 466.737 299.95 466.383 299.418C466.037 298.886 465.865 298.298 465.865 297.654V294.518C465.865 293.874 466.037 293.291 466.383 292.768C466.737 292.245 467.223 291.835 467.839 291.536C468.464 291.228 469.164 291.074 469.939 291.074C470.713 291.074 471.409 291.228 472.025 291.536C472.65 291.835 473.14 292.245 473.495 292.768C473.849 293.291 474.027 293.874 474.027 294.518V297.654C474.027 298.298 473.849 298.886 473.495 299.418C473.14 299.95 472.65 300.37 472.025 300.678C471.409 300.977 470.713 301.126 469.939 301.126ZM469.939 299.81C470.751 299.81 471.385 299.614 471.843 299.222C472.309 298.83 472.543 298.303 472.543 297.64V294.546C472.543 293.883 472.309 293.356 471.843 292.964C471.385 292.572 470.751 292.376 469.939 292.376C469.127 292.376 468.487 292.572 468.021 292.964C467.563 293.356 467.335 293.883 467.335 294.546V297.64C467.335 298.303 467.563 298.83 468.021 299.222C468.487 299.614 469.127 299.81 469.939 299.81ZM478.338 292.32C478.338 291.937 478.464 291.634 478.716 291.41C478.968 291.186 479.309 291.074 479.738 291.074L484.946 299.04L485.058 298.956L484.596 298.186V291.074C485.081 291.074 485.45 291.177 485.702 291.382C485.954 291.578 486.08 291.872 486.08 292.264V300.006C486.08 300.323 485.959 300.589 485.716 300.804C485.483 301.019 485.193 301.126 484.848 301.126L479.472 292.894L479.36 292.992L479.822 293.762V299.936C479.822 300.729 479.327 301.126 478.338 301.126V292.32Z" fill="black"/>
</svg>
